# xmcd
#
# Track frame offsets: 
#        150
#        17168
#        33568
#        45788
#        59183
#        73770
#        87270
#        100658
#        121648
#        135943
#        149560
#        164135
#        176105
#        190763
#        202863
#        219068
#        232158
#        245998
#        256418
#        279218
#
# Disc length: 3943 seconds
#
# Revision: 3
# Processed by: cddbd v1.5.2PL0 Copyright (c) Steve Scherf et al.
# Submitted via: ExactAudioCopyFreeDBPlugin 1.0
#
DISCID=230f6514
DTITLE=Vari - Viva '60 '70 '80 - CD 1
DYEAR=1900
DGENRE=Pop/Funk
TTITLE0=Adriano Pappalardo - Ricominciamo
TTITLE1=Franco IV e Franco I - Ho scritto t'amo sulla sabbia
TTITLE2=Michele - Se mi vuoi lasciare
TTITLE3=Adamo - Affida una lacrima al vento
TTITLE4=Nicola di Bari - La prima cosa bella
TTITLE5=Don Backy - L'immensita'
TTITLE6=Little Tony - Cuore matto
TTITLE7=Schola Cantorum - Le tre campane
TTITLE8=Mino Reitano - Avevo un cuore
TTITLE9=Jimmy Fontana - Il mondo
TTITLE10=Renato dei Profeti - Gli occhi verdi dell'amore
TTITLE11=Gianni Nazzaro - Quanto e' bella lei
TTITLE12=Mario Tessuto - Lisa dagli occhi blu
TTITLE13=Gianni Bella - Piu' ci penso
TTITLE14=Donatello - Malattia d'amore
TTITLE15=Rita Pavone - Come te non c'e' nessuno
TTITLE16=Marcella Bella - Montagne verdi
TTITLE17=Rocky Roberts - Stasera mi butto
TTITLE18=I Corvi - Bang bang
TTITLE19=Bobby Solo - Una lacrima sul viso
EXTD=0\n\n\n
EXTT0=
EXTT1=
EXTT2=
EXTT3=
EXTT4=
EXTT5=
EXTT6=
EXTT7=
EXTT8=
EXTT9=
EXTT10=
EXTT11=
EXTT12=
EXTT13=
EXTT14=
EXTT15=
EXTT16=
EXTT17=
EXTT18=
EXTT19=
PLAYORDER=
